<mxfile host="app.diagrams.net" modified="2023-12-18T10:56:51.425Z" agent="Mozilla/5.0 (Windows NT 10.0; Win64; x64; rv:120.0) Gecko/20100101 Firefox/120.0" version="22.1.11" etag="sO_rt4DgKn8SfWKiMQV4" type="github">
  <diagram name="Page-1" id="mkNHmCwn9AjTCNM6ouEc">
    <mxGraphModel>
      <root>
        <mxCell id="0" />
        <mxCell id="1" parent="0" />
      </root>
    </mxGraphModel>
  </diagram>
</mxfile>
